{
  "accessors": [
    {
      "bufferView": 2,
      "componentType": 5126,
      "count": 28,
      "max": [
        131.32200622558594,
        190.12840270996094,
        1299.923583984375
      ],
      "min": [
        -113.20379638671875,
        190.1282958984375,
        294.0815124511719
      ],
      "type": "VEC3"
    },
    {
      "bufferView": 2,
      "byteOffset": 336,
      "componentType": 5126,
      "count": 28,
      "max": [
        -0.0,
        -1.0,
        -0.0
      ],
      "min": [
        -0.0,
        -1.0,
        -0.0
      ],
      "type": "VEC3"
    },
    {
      "bufferView": 1,
      "componentType": 5126,
      "count": 28,
      "max": [
        0.9977999925613403,
        1.9946000576019287
      ],
      "min": [
        0.0005000000237487257,
        -0.008999999612569809
      ],
      "type": "VEC2"
    },
    {
      "bufferView": 0,
      "componentType": 5125,
      "count": 48,
      "type": "SCALAR"
    },
    {
      "bufferView": 2,
      "byteOffset": 672,
      "componentType": 5126,
      "count": 1955,
      "max": [
        203.45069885253906,
        165.42239379882813,
        1296.9036865234375
      ],
      "min": [
        -151.37109375,
        -189.39939880371094,
        310.5274963378906
      ],
      "type": "VEC3"
    },
    {
      "bufferView": 2,
      "byteOffset": 24132,
      "componentType": 5126,
      "count": 1955,
      "max": [
        0.9658704400062561,
        0.9658704400062561,
        0.9999599456787109
      ],
      "min": [
        -0.9961299300193787,
        -0.9961299300193787,
        -0.9993424415588379
      ],
      "type": "VEC3"
    },
    {
      "bufferView": 1,
      "byteOffset": 224,
      "componentType": 5126,
      "count": 1955,
      "max": [
        0.998199999332428,
        0.8543000221252441
      ],
      "min": [
        -0.125,
        0.14569999277591705
      ],
      "type": "VEC2"
    },
    {
      "bufferView": 0,
      "byteOffset": 192,
      "componentType": 5125,
      "count": 3672,
      "type": "SCALAR"
    },
    {
      "bufferView": 2,
      "byteOffset": 47592,
      "componentType": 5126,
      "count": 29,
      "max": [
        -100.63890075683594,
        -385.9883117675781,
        97.22360229492188
      ],
      "min": [
        -147.23899841308594,
        -385.9883117675781,
        50.89950180053711
      ],
      "type": "VEC3"
    },
    {
      "bufferView": 2,
      "byteOffset": 47940,
      "componentType": 5126,
      "count": 29,
      "max": [
        0.0,
        -1.0,
        -0.0
      ],
      "min": [
        0.0,
        -1.0,
        -0.0
      ],
      "type": "VEC3"
    },
    {
      "bufferView": 1,
      "byteOffset": 15864,
      "componentType": 5126,
      "count": 29,
      "max": [
        0.9093999862670898,
        0.9857000112533569
      ],
      "min": [
        0.09059999883174896,
        0.14000000059604645
      ],
      "type": "VEC2"
    },
    {
      "bufferView": 0,
      "byteOffset": 14880,
      "componentType": 5125,
      "count": 81,
      "type": "SCALAR"
    },
    {
      "bufferView": 2,
      "byteOffset": 48288,
      "componentType": 5126,
      "count": 1044,
      "max": [
        496.7627868652344,
        -238.71560668945313,
        161.6584014892578
      ],
      "min": [
        264.9814147949219,
        -374.69879150390625,
        154.3603973388672
      ],
      "type": "VEC3"
    },
    {
      "bufferView": 2,
      "byteOffset": 60816,
      "componentType": 5126,
      "count": 1044,
      "max": [
        0.9993352890014648,
        0.9235787391662598,
        0.9998055100440979
      ],
      "min": [
        -0.9544018507003784,
        -0.9999762773513794,
        -0.9998055100440979
      ],
      "type": "VEC3"
    },
    {
      "bufferView": 0,
      "byteOffset": 15204,
      "componentType": 5125,
      "count": 2076,
      "type": "SCALAR"
    },
    {
      "bufferView": 2,
      "byteOffset": 73344,
      "componentType": 5126,
      "count": 4942,
      "max": [
        310.8428955078125,
        385.9892883300781,
        1386.02001953125
      ],
      "min": [
        -292.724609375,
        -376.7535095214844,
        28.80190086364746
      ],
      "type": "VEC3"
    },
    {
      "bufferView": 2,
      "byteOffset": 132648,
      "componentType": 5126,
      "count": 4942,
      "max": [
        1.0,
        1.0,
        1.0
      ],
      "min": [
        -1.0,
        -1.0,
        -1.0
      ],
      "type": "VEC3"
    },
    {
      "bufferView": 1,
      "byteOffset": 16096,
      "componentType": 5126,
      "count": 4942,
      "max": [
        1.1877000331878662,
        1.63100004196167
      ],
      "min": [
        -0.22030000388622284,
        -0.6322000026702881
      ],
      "type": "VEC2"
    },
    {
      "bufferView": 0,
      "byteOffset": 23508,
      "componentType": 5125,
      "count": 9228,
      "type": "SCALAR"
    },
    {
      "bufferView": 2,
      "byteOffset": 191952,
      "componentType": 5126,
      "count": 17023,
      "max": [
        305.1195983886719,
        384.75830078125,
        1462.814208984375
      ],
      "min": [
        -267.3724060058594,
        -106.33820343017578,
        144.8350067138672
      ],
      "type": "VEC3"
    },
    {
      "bufferView": 2,
      "byteOffset": 396228,
      "componentType": 5126,
      "count": 17023,
      "max": [
        1.0,
        1.0,
        1.0
      ],
      "min": [
        -1.0,
        -1.0,
        -1.0
      ],
      "type": "VEC3"
    },
    {
      "bufferView": 1,
      "byteOffset": 55632,
      "componentType": 5126,
      "count": 17023,
      "max": [
        64.11100006103516,
        2.6549999713897705
      ],
      "min": [
        -4.3902997970581055,
        -63.31959915161133
      ],
      "type": "VEC2"
    },
    {
      "bufferView": 0,
      "byteOffset": 60420,
      "componentType": 5125,
      "count": 28134,
      "type": "SCALAR"
    },
    {
      "bufferView": 2,
      "byteOffset": 600504,
      "componentType": 5126,
      "count": 1169,
      "max": [
        291.88238525390625,
        89.04740142822266,
        1409.3475341796875
      ],
      "min": [
        -497.0234069824219,
        -377.1040954589844,
        28.976499557495117
      ],
      "type": "VEC3"
    },
    {
      "bufferView": 2,
      "byteOffset": 614532,
      "componentType": 5126,
      "count": 1169,
      "max": [
        1.0,
        1.0,
        1.0
      ],
      "min": [
        -1.0,
        -1.0,
        -1.0
      ],
      "type": "VEC3"
    },
    {
      "bufferView": 1,
      "byteOffset": 191816,
      "componentType": 5126,
      "count": 1169,
      "max": [
        232.6967010498047,
        16.824800491333008
      ],
      "min": [
        -225.96490478515625,
        -16.390300750732422
      ],
      "type": "VEC2"
    },
    {
      "bufferView": 0,
      "byteOffset": 172956,
      "componentType": 5125,
      "count": 1968,
      "type": "SCALAR"
    },
    {
      "bufferView": 2,
      "byteOffset": 628560,
      "componentType": 5126,
      "count": 9622,
      "max": [
        376.94879150390625,
        287.647705078125,
        1292.679931640625
      ],
      "min": [
        71.40519714355469,
        -380.60791015625,
        74.09239959716797
      ],
      "type": "VEC3"
    },
    {
      "bufferView": 2,
      "byteOffset": 744024,
      "componentType": 5126,
      "count": 9622,
      "max": [
        1.0,
        0.9995221495628357,
        1.0
      ],
      "min": [
        -1.0,
        -0.9997308850288391,
        -0.9987088441848755
      ],
      "type": "VEC3"
    },
    {
      "bufferView": 1,
      "byteOffset": 201168,
      "componentType": 5126,
      "count": 9622,
      "max": [
        1.0,
        1.0
      ],
      "min": [
        0.0,
        0.0
      ],
      "type": "VEC2"
    },
    {
      "bufferView": 0,
      "byteOffset": 180828,
      "componentType": 5125,
      "count": 16053,
      "type": "SCALAR"
    },
    {
      "bufferView": 2,
      "byteOffset": 859488,
      "componentType": 5126,
      "count": 3204,
      "max": [
        28.210399627685547,
        -378.0701904296875,
        84.68440246582031
      ],
      "min": [
        -1.0281000137329102,
        -380.6077880859375,
        74.09220123291016
      ],
      "type": "VEC3"
    },
    {
      "bufferView": 2,
      "byteOffset": 897936,
      "componentType": 5126,
      "count": 3204,
      "max": [
        0.9910498261451721,
        -0.13349322974681854,
        0.9910215139389038
      ],
      "min": [
        -0.9910498261451721,
        -0.9997168183326721,
        -0.9910215139389038
      ],
      "type": "VEC3"
    },
    {
      "bufferView": 1,
      "byteOffset": 278144,
      "componentType": 5126,
      "count": 3204,
      "max": [
        1.193600058555603,
        -0.18950000405311584
      ],
      "min": [
        -0.19359999895095825,
        -0.555400013923645
      ],
      "type": "VEC2"
    },
    {
      "bufferView": 0,
      "byteOffset": 245040,
      "componentType": 5125,
      "count": 4728,
      "type": "SCALAR"
    },
    {
      "bufferView": 2,
      "byteOffset": 936384,
      "componentType": 5126,
      "count": 13235,
      "max": [
        497.02349853515625,
        -238.42010498046875,
        171.0653076171875
      ],
      "min": [
        264.6282043457031,
        -374.9313049316406,
        146.11749267578125
      ],
      "type": "VEC3"
    },
    {
      "bufferView": 2,
      "byteOffset": 1095204,
      "componentType": 5126,
      "count": 13235,
      "max": [
        0.9993352890014648,
        0.9235787391662598,
        0.9998076558113098
      ],
      "min": [
        -0.9544018507003784,
        -0.9999762773513794,
        -0.9998074173927307
      ],
      "type": "VEC3"
    },
    {
      "bufferView": 1,
      "byteOffset": 303776,
      "componentType": 5126,
      "count": 13235,
      "max": [
        0.9994999766349792,
        0.9994999766349792
      ],
      "min": [
        0.0005000000237487257,
        0.0005000000237487257
      ],
      "type": "VEC2"
    },
    {
      "bufferView": 0,
      "byteOffset": 263952,
      "componentType": 5125,
      "count": 20856,
      "type": "SCALAR"
    },
    {
      "bufferView": 2,
      "byteOffset": 1254024,
      "componentType": 5126,
      "count": 1579,
      "max": [
        105.20179748535156,
        -377.0284118652344,
        89.01429748535156
      ],
      "min": [
        -5.8078999519348145,
        -378.31500244140625,
        69.7261962890625
      ],
      "type": "VEC3"
    },
    {
      "bufferView": 2,
      "byteOffset": 1272972,
      "componentType": 5126,
      "count": 1579,
      "max": [
        1.0,
        1.0,
        1.0
      ],
      "min": [
        -1.0,
        -1.0,
        -1.0
      ],
      "type": "VEC3"
    },
    {
      "bufferView": 1,
      "byteOffset": 409656,
      "componentType": 5126,
      "count": 1579,
      "max": [
        1.1899000406265259,
        -0.18770000338554382
      ],
      "min": [
        -0.1898999959230423,
        -0.5627999901771545
      ],
      "type": "VEC2"
    },
    {
      "bufferView": 0,
      "byteOffset": 347376,
      "componentType": 5125,
      "count": 2832,
      "type": "SCALAR"
    },
    {
      "bufferView": 2,
      "byteOffset": 1291920,
      "componentType": 5126,
      "count": 15688,
      "max": [
        60.86629867553711,
        270.7414855957031,
        1468.0919189453125
      ],
      "min": [
        22.20639991760254,
        -50.421600341796875,
        1057.591552734375
      ],
      "type": "VEC3"
    },
    {
      "bufferView": 2,
      "byteOffset": 1480176,
      "componentType": 5126,
      "count": 15688,
      "max": [
        1.0,
        1.0,
        1.0
      ],
      "min": [
        -1.0,
        -1.0,
        -1.0
      ],
      "type": "VEC3"
    },
    {
      "bufferView": 1,
      "byteOffset": 422288,
      "componentType": 5126,
      "count": 15688,
      "max": [
        15.768099784851074,
        12.767600059509277
      ],
      "min": [
        -8.81309986114502,
        -28.282400131225586
      ],
      "type": "VEC2"
    },
    {
      "bufferView": 0,
      "byteOffset": 358704,
      "componentType": 5125,
      "count": 23904,
      "type": "SCALAR"
    },
    {
      "bufferView": 2,
      "byteOffset": 1668432,
      "componentType": 5126,
      "count": 9566,
      "max": [
        306.9845886230469,
        385.3381042480469,
        1410.6640625
      ],
      "min": [
        -292.13470458984375,
        -385.9883117675781,
        9.128800392150879
      ],
      "type": "VEC3"
    },
    {
      "bufferView": 2,
      "byteOffset": 1783224,
      "componentType": 5126,
      "count": 9566,
      "max": [
        1.0,
        1.0,
        1.0
      ],
      "min": [
        -1.0,
        -0.9992275238037109,
        -1.0
      ],
      "type": "VEC3"
    },
    {
      "bufferView": 1,
      "byteOffset": 547792,
      "componentType": 5126,
      "count": 9566,
      "max": [
        1.0463000535964966,
        1.0463000535964966
      ],
      "min": [
        -0.046300001442432404,
        -0.39989998936653137
      ],
      "type": "VEC2"
    },
    {
      "bufferView": 0,
      "byteOffset": 454320,
      "componentType": 5125,
      "count": 17907,
      "type": "SCALAR"
    },
    {
      "bufferView": 2,
      "byteOffset": 1898016,
      "componentType": 5126,
      "count": 7520,
      "max": [
        31.436899185180664,
        25.9375,
        1444.5760498046875
      ],
      "min": [
        17.773000717163086,
        24.1481990814209,
        1430.9122314453125
      ],
      "type": "VEC3"
    },
    {
      "bufferView": 2,
      "byteOffset": 1988256,
      "componentType": 5126,
      "count": 7520,
      "max": [
        0.9992275238037109,
        1.0,
        0.9992275238037109
      ],
      "min": [
        -0.9992275238037109,
        -1.0,
        -0.9992275238037109
      ],
      "type": "VEC3"
    },
    {
      "bufferView": 1,
      "byteOffset": 624320,
      "componentType": 5126,
      "count": 7520,
      "max": [
        1.0,
        1.0
      ],
      "min": [
        0.0,
        0.0
      ],
      "type": "VEC2"
    },
    {
      "bufferView": 0,
      "byteOffset": 525948,
      "componentType": 5125,
      "count": 11988,
      "type": "SCALAR"
    },
    {
      "bufferView": 2,
      "byteOffset": 2078496,
      "componentType": 5126,
      "count": 4212,
      "max": [
        395.8360900878906,
        -38.78919982910156,
        1448.8092041015625
      ],
      "min": [
        60.67580032348633,
        -307.0382080078125,
        146.09120178222656
      ],
      "type": "VEC3"
    },
    {
      "bufferView": 2,
      "byteOffset": 2129040,
      "componentType": 5126,
      "count": 4212,
      "max": [
        0.9997308850288391,
        0.9977265000343323,
        0.9998055100440979
      ],
      "min": [
        -0.99754399061203,
        -0.9977265000343323,
        -0.9998055100440979
      ],
      "type": "VEC3"
    },
    {
      "bufferView": 1,
      "byteOffset": 684480,
      "componentType": 5126,
      "count": 4212,
      "max": [
        44.94670104980469,
        4.367499828338623
      ],
      "min": [
        -2.7111001014709473,
        -2.7111001014709473
      ],
      "type": "VEC2"
    },
    {
      "bufferView": 0,
      "byteOffset": 573900,
      "componentType": 5125,
      "count": 6672,
      "type": "SCALAR"
    }
  ],
  "asset": {
    "extras": {
      "author": "noam (https://sketchfab.com/ndly466)",
      "license": "CC-BY-4.0 (http://creativecommons.org/licenses/by/4.0/)",
      "source": "https://sketchfab.com/3d-models/shawarma-d6f9e248ecce4449850611fff8336c27",
      "title": "shawarma"
    },
    "generator": "Sketchfab-16.63.0",
    "version": "2.0"
  },
  "bufferViews": [
    {
      "buffer": 0,
      "byteLength": 600588,
      "name": "floatBufferViews",
      "target": 34963
    },
    {
      "buffer": 0,
      "byteLength": 718176,
      "byteOffset": 600588,
      "byteStride": 8,
      "name": "floatBufferViews",
      "target": 34962
    },
    {
      "buffer": 0,
      "byteLength": 2179584,
      "byteOffset": 1318764,
      "byteStride": 12,
      "name": "floatBufferViews",
      "target": 34962
    }
  ],
  "buffers": [
    {
      "byteLength": 3498348,
      "uri": "scene.bin"
    }
  ],
  "images": [
    {
      "uri": "textures/Glass_lamp_baseColor.jpeg"
    },
    {
      "uri": "textures/Meat_baseColor.jpeg"
    },
    {
      "uri": "textures/Plastic_baseColor.jpeg"
    }
  ],
  "materials": [
    {
      "doubleSided": true,
      "name": "Chrome",
      "pbrMetallicRoughness": {
        "baseColorFactor": [
          0.9137,
          0.9137,
          0.9137,
          1.0
        ],
        "metallicFactor": 0.0
      }
    },
    {
      "doubleSided": true,
      "emissiveTexture": {
        "index": 0
      },
      "name": "Glass_lamp",
      "pbrMetallicRoughness": {
        "baseColorTexture": {
          "index": 0
        },
        "metallicFactor": 0.0,
        "roughnessFactor": 0.8177720206632981
      }
    },
    {
      "doubleSided": true,
      "emissiveTexture": {
        "index": 1
      },
      "name": "Meat",
      "pbrMetallicRoughness": {
        "baseColorTexture": {
          "index": 1
        },
        "metallicFactor": 0.0
      }
    },
    {
      "doubleSided": true,
      "emissiveTexture": {
        "index": 2
      },
      "name": "Plastic",
      "pbrMetallicRoughness": {
        "baseColorTexture": {
          "index": 2
        },
        "metallicFactor": 0.0
      }
    },
    {
      "doubleSided": true,
      "name": "Plastic_black",
      "pbrMetallicRoughness": {
        "baseColorFactor": [
          0.0,
          0.0,
          0.0,
          1.0
        ],
        "metallicFactor": 0.0
      }
    },
    {
      "doubleSided": true,
      "name": "Plastic_color",
      "pbrMetallicRoughness": {
        "baseColorFactor": [
          0.8314,
          0.1765,
          0.0,
          1.0
        ],
        "metallicFactor": 0.0
      }
    },
    {
      "doubleSided": true,
      "name": "Plastic_grey",
      "pbrMetallicRoughness": {
        "baseColorFactor": [
          0.8824,
          0.8824,
          0.8824,
          1.0
        ],
        "metallicFactor": 0.0
      }
    }
  ],
  "meshes": [
    {
      "name": "Object_0",
      "primitives": [
        {
          "attributes": {
            "NORMAL": 1,
            "POSITION": 0,
            "TEXCOORD_0": 2
          },
          "indices": 3,
          "material": 1,
          "mode": 4
        }
      ]
    },
    {
      "name": "Object_1",
      "primitives": [
        {
          "attributes": {
            "NORMAL": 5,
            "POSITION": 4,
            "TEXCOORD_0": 6
          },
          "indices": 7,
          "material": 2,
          "mode": 4
        }
      ]
    },
    {
      "name": "Object_2",
      "primitives": [
        {
          "attributes": {
            "NORMAL": 9,
            "POSITION": 8,
            "TEXCOORD_0": 10
          },
          "indices": 11,
          "material": 3,
          "mode": 4
        }
      ]
    },
    {
      "name": "Object_3",
      "primitives": [
        {
          "attributes": {
            "NORMAL": 13,
            "POSITION": 12
          },
          "indices": 14,
          "material": 6,
          "mode": 4
        }
      ]
    },
    {
      "name": "Object_4",
      "primitives": [
        {
          "attributes": {
            "NORMAL": 16,
            "POSITION": 15,
            "TEXCOORD_0": 17
          },
          "indices": 18,
          "material": 0,
          "mode": 4
        }
      ]
    },
    {
      "name": "Object_5",
      "primitives": [
        {
          "attributes": {
            "NORMAL": 20,
            "POSITION": 19,
            "TEXCOORD_0": 21
          },
          "indices": 22,
          "material": 0,
          "mode": 4
        }
      ]
    },
    {
      "name": "Object_6",
      "primitives": [
        {
          "attributes": {
            "NORMAL": 24,
            "POSITION": 23,
            "TEXCOORD_0": 25
          },
          "indices": 26,
          "material": 0,
          "mode": 4
        }
      ]
    },
    {
      "name": "Object_7",
      "primitives": [
        {
          "attributes": {
            "NORMAL": 28,
            "POSITION": 27,
            "TEXCOORD_0": 29
          },
          "indices": 30,
          "material": 4,
          "mode": 4
        }
      ]
    },
    {
      "name": "Object_8",
      "primitives": [
        {
          "attributes": {
            "NORMAL": 32,
            "POSITION": 31,
            "TEXCOORD_0": 33
          },
          "indices": 34,
          "material": 5,
          "mode": 4
        }
      ]
    },
    {
      "name": "Object_9",
      "primitives": [
        {
          "attributes": {
            "NORMAL": 36,
            "POSITION": 35,
            "TEXCOORD_0": 37
          },
          "indices": 38,
          "material": 5,
          "mode": 4
        }
      ]
    },
    {
      "name": "Object_10",
      "primitives": [
        {
          "attributes": {
            "NORMAL": 40,
            "POSITION": 39,
            "TEXCOORD_0": 41
          },
          "indices": 42,
          "material": 6,
          "mode": 4
        }
      ]
    },
    {
      "name": "Object_11",
      "primitives": [
        {
          "attributes": {
            "NORMAL": 44,
            "POSITION": 43,
            "TEXCOORD_0": 45
          },
          "indices": 46,
          "material": 6,
          "mode": 4
        }
      ]
    },
    {
      "name": "Object_12",
      "primitives": [
        {
          "attributes": {
            "NORMAL": 48,
            "POSITION": 47,
            "TEXCOORD_0": 49
          },
          "indices": 50,
          "material": 6,
          "mode": 4
        }
      ]
    },
    {
      "name": "Object_13",
      "primitives": [
        {
          "attributes": {
            "NORMAL": 52,
            "POSITION": 51,
            "TEXCOORD_0": 53
          },
          "indices": 54,
          "material": 6,
          "mode": 4
        }
      ]
    },
    {
      "name": "Object_14",
      "primitives": [
        {
          "attributes": {
            "NORMAL": 56,
            "POSITION": 55,
            "TEXCOORD_0": 57
          },
          "indices": 58,
          "material": 6,
          "mode": 4
        }
      ]
    }
  ],
  "nodes": [
    {
      "children": [
        1
      ],
      "matrix": [
        1.0,
        0.0,
        0.0,
        0.0,
        0.0,
        2.220446049250313e-16,
        -1.0,
        0.0,
        0.0,
        1.0,
        2.220446049250313e-16,
        0.0,
        0.0,
        0.0,
        0.0,
        1.0
      ],
      "name": "Sketchfab_model"
    },
    {
      "children": [
        2,
        3,
        4,
        5,
        6,
        7,
        8,
        9,
        10,
        11,
        12,
        13,
        14,
        15,
        16
      ],
      "name": "Doner machine N191022.obj.cleaner.materialmerger.gles"
    },
    {
      "mesh": 0,
      "name": "Object_2"
    },
    {
      "mesh": 1,
      "name": "Object_3"
    },
    {
      "mesh": 2,
      "name": "Object_4"
    },
    {
      "mesh": 3,
      "name": "Object_5"
    },
    {
      "mesh": 4,
      "name": "Object_6"
    },
    {
      "mesh": 5,
      "name": "Object_7"
    },
    {
      "mesh": 6,
      "name": "Object_8"
    },
    {
      "mesh": 7,
      "name": "Object_9"
    },
    {
      "mesh": 8,
      "name": "Object_10"
    },
    {
      "mesh": 9,
      "name": "Object_11"
    },
    {
      "mesh": 10,
      "name": "Object_12"
    },
    {
      "mesh": 11,
      "name": "Object_13"
    },
    {
      "mesh": 12,
      "name": "Object_14"
    },
    {
      "mesh": 13,
      "name": "Object_15"
    },
    {
      "mesh": 14,
      "name": "Object_16"
    }
  ],
  "samplers": [
    {
      "magFilter": 9729,
      "minFilter": 9987,
      "wrapS": 10497,
      "wrapT": 10497
    }
  ],
  "scene": 0,
  "scenes": [
    {
      "name": "Sketchfab_Scene",
      "nodes": [
        0
      ]
    }
  ],
  "textures": [
    {
      "sampler": 0,
      "source": 0
    },
    {
      "sampler": 0,
      "source": 1
    },
    {
      "sampler": 0,
      "source": 2
    }
  ]
}
